<?xml version="1.0" encoding="UTF-8"?>
<svg width="700pt" height="700pt" version="1.1" viewBox="0 0 700 700" xmlns="http://www.w3.org/2000/svg">
 <path d="m488.54 292.39c0 12.082-9.7969 21.875-21.875 21.875-12.082 0-21.875-9.793-21.875-21.875 0-12.078 9.793-21.875 21.875-21.875 12.078 0 21.875 9.7969 21.875 21.875" fill="#ffffff" fill-rule="evenodd"/>
 <path d="m255.21 292.39c0 12.082-9.793 21.875-21.875 21.875-12.078 0-21.875-9.793-21.875-21.875 0-12.078 9.7969-21.875 21.875-21.875 12.082 0 21.875 9.7969 21.875 21.875" fill="#ffffff" fill-rule="evenodd"/>
 <path d="m350 88.23c-156.95 0-284.38 127.43-284.38 284.38 0 89.277 41.242 169.02 105.7 221.17 23.625 19.105 49.641 20.973 77.816 15.02 30.918-6.5352 64.953-24.734 100.86-24.734 35.902 0 69.941 18.199 100.86 24.734 28.176 5.9492 54.191 4.082 77.816-15.02 64.457-52.148 105.7-131.89 105.7-221.17 0-156.95-127.43-284.38-284.38-284.38zm0 43.75c132.8 0 240.62 107.83 240.62 240.62 0 75.543-34.914 143.04-89.453 187.16-16.566 13.418-35.555 8.4297-56 2.3906-29.691-8.75-61.805-21.848-95.172-21.848s-65.48 13.098-95.172 21.848c-20.445 6.0391-39.434 11.023-56-2.3906-54.543-44.129-89.453-111.62-89.453-187.16 0-132.8 107.83-240.62 240.62-240.62z" fill="#ffffff" fill-rule="evenodd"/>
 <path d="m119.58 213.62c-6.418-8.5469-10.207-19.133-10.207-30.598 0-28.176 22.867-51.043 51.043-51.043 16.684 0 31.527 8.0195 40.832 20.445 7.2617 9.6523 21 11.609 30.625 4.3477 9.6523-7.2617 11.609-20.973 4.375-30.625-17.297-23.043-44.859-37.918-75.832-37.918-52.324 0-94.793 42.465-94.793 94.793 0 21.32 7.0586 41.008 18.957 56.875 7.2617 9.6523 21 11.609 30.625 4.3477 9.6523-7.2617 11.609-20.973 4.375-30.625z" fill="#ffffff" fill-rule="evenodd"/>
 <path d="m408.33 467.39c-16.684 0-31.527-8.0508-40.832-20.445-4.1406-5.5117-10.617-8.75-17.5-8.75s-13.359 3.2383-17.5 8.75c-9.3047 12.395-24.148 20.445-40.832 20.445-12.074 0-21.875 9.8008-21.875 21.875s9.8008 21.875 21.875 21.875c21.992 0 42.262-7.4961 58.332-20.098 16.102 12.602 36.34 20.098 58.332 20.098 12.074 0 21.875-9.8008 21.875-21.875s-9.8008-21.875-21.875-21.875z" fill="#ffffff" fill-rule="evenodd"/>
 <path d="m615.42 239.89c11.898-15.867 18.957-35.555 18.957-56.875 0-52.324-42.465-94.793-94.793-94.793-30.977 0-58.539 14.875-75.832 37.918-7.2344 9.6523-5.2773 23.363 4.375 30.625 9.625 7.2617 23.363 5.3086 30.625-4.3477 9.3047-12.426 24.148-20.445 40.832-20.445 28.176 0 51.043 22.867 51.043 51.043 0 11.461-3.793 22.051-10.207 30.598-7.2344 9.6523-5.2773 23.363 4.375 30.625 9.625 7.2617 23.363 5.3086 30.625-4.3477z" fill="#ffffff" fill-rule="evenodd"/>
 <path d="m430.21 343.44c0-28.203-22.836-51.043-51.043-51.043h-58.332c-28.203 0-51.043 22.836-51.043 51.043v11.141c0 19.336 10.91 37.012 28.203 45.645l42.234 21.117c6.1523 3.0625 13.387 3.0625 19.543 0l42.234-21.117c17.297-8.6328 28.203-26.309 28.203-45.645v-11.141zm-43.75 0v11.141c0 2.7422-1.5469 5.2773-4.0234 6.5039l-32.434 16.215-32.434-16.215c-2.4805-1.2266-4.0234-3.7617-4.0234-6.5039v-11.141c0-4.0234 3.2656-7.293 7.293-7.293h58.332c4.0234 0 7.293 3.2656 7.293 7.293z" fill="#ffffff" fill-rule="evenodd"/>
 <path d="m328.12 401.77v58.332c0 12.074 9.8008 21.875 21.875 21.875s21.875-9.8008 21.875-21.875v-58.332c0-12.074-9.8008-21.875-21.875-21.875s-21.875 9.8008-21.875 21.875z" fill="#ffffff" fill-rule="evenodd"/>
 <path d="m649.8 410.61-145.83-58.332c-11.23-4.4609-23.977 0.99219-28.438 12.191-4.4922 11.23 0.96094 23.945 12.164 28.438l145.83 58.332c11.23 4.4922 23.977-0.96094 28.438-12.191 4.4922-11.199-0.96094-23.945-12.164-28.438z" fill="#ffffff" fill-rule="evenodd"/>
 <path d="m66.473 451.24 145.83-58.332c11.199-4.4922 16.652-17.207 12.164-28.438-4.4609-11.199-17.207-16.652-28.438-12.191l-145.83 58.332c-11.199 4.4922-16.652 17.238-12.164 28.438 4.4609 11.23 17.207 16.684 28.438 12.191z" fill="#ffffff" fill-rule="evenodd"/>
 <path d="m649.8 483.52-145.83-58.332c-11.23-4.4922-23.977 0.99219-28.438 12.191-4.4922 11.199 0.96094 23.945 12.164 28.438l145.83 58.332c11.23 4.4922 23.977-0.99219 28.438-12.191 4.4922-11.199-0.96094-23.945-12.164-28.438z" fill="#ffffff" fill-rule="evenodd"/>
 <path d="m66.473 524.15 145.83-58.332c11.199-4.4922 16.652-17.238 12.164-28.438-4.4609-11.199-17.207-16.684-28.438-12.191l-145.83 58.332c-11.199 4.4922-16.652 17.238-12.164 28.438 4.4609 11.199 17.207 16.684 28.438 12.191z" fill="#ffffff" fill-rule="evenodd"/>
 <path d="m649.8 556.44-145.83-58.332c-11.23-4.4922-23.977 0.96094-28.438 12.191-4.4922 11.199 0.96094 23.945 12.164 28.438l145.83 58.332c11.23 4.4609 23.977-0.99219 28.438-12.191 4.4922-11.23-0.96094-23.945-12.164-28.438z" fill="#ffffff" fill-rule="evenodd"/>
 <path d="m66.473 597.07 145.83-58.332c11.199-4.4922 16.652-17.238 12.164-28.438-4.4609-11.23-17.207-16.684-28.438-12.191l-145.83 58.332c-11.199 4.4922-16.652 17.207-12.164 28.438 4.4609 11.199 17.207 16.652 28.438 12.191z" fill="#ffffff" fill-rule="evenodd"/>
</svg>